<mxfile host="app.diagrams.net" modified="2021-02-25T06:13:35.350Z" agent="5.0 (Windows NT 10.0; Win64; x64) AppleWebKit/537.36 (KHTML, like Gecko) Chrome/88.0.4324.182 Safari/537.36" etag="6i1PKlDlSLP4m3Zxa294" version="14.4.2" type="github">
  <diagram id="C5RBs43oDa-KdzZeNtuy" name="Page-1">
    <mxGraphModel dx="1038" dy="580" grid="1" gridSize="10" guides="1" tooltips="1" connect="1" arrows="1" fold="1" page="1" pageScale="1" pageWidth="827" pageHeight="1169" math="0" shadow="0">
      <root>
        <mxCell id="WIyWlLk6GJQsqaUBKTNV-0" />
        <mxCell id="WIyWlLk6GJQsqaUBKTNV-1" parent="WIyWlLk6GJQsqaUBKTNV-0" />
        <mxCell id="l0DTdeRmtsoBARkhN8Zq-2" value="&lt;font style=&quot;font-size: 14px&quot;&gt;Mulai&lt;/font&gt;" style="strokeWidth=1;html=1;shape=mxgraph.flowchart.start_1;whiteSpace=wrap;" vertex="1" parent="WIyWlLk6GJQsqaUBKTNV-1">
          <mxGeometry x="250" y="50" width="150" height="70" as="geometry" />
        </mxCell>
        <mxCell id="l0DTdeRmtsoBARkhN8Zq-3" value="&lt;font style=&quot;font-size: 13px&quot;&gt;Analisis Metode Deskriptif&lt;/font&gt;" style="rounded=1;whiteSpace=wrap;html=1;absoluteArcSize=1;arcSize=14;strokeWidth=1;" vertex="1" parent="WIyWlLk6GJQsqaUBKTNV-1">
          <mxGeometry x="250" y="150" width="150" height="70" as="geometry" />
        </mxCell>
        <mxCell id="l0DTdeRmtsoBARkhN8Zq-4" value="&lt;font style=&quot;font-size: 13px&quot;&gt;Studi Literatur&lt;/font&gt;" style="shape=parallelogram;html=1;strokeWidth=1;perimeter=parallelogramPerimeter;whiteSpace=wrap;rounded=1;arcSize=12;size=0.23;" vertex="1" parent="WIyWlLk6GJQsqaUBKTNV-1">
          <mxGeometry x="250" y="250" width="150" height="60" as="geometry" />
        </mxCell>
        <mxCell id="l0DTdeRmtsoBARkhN8Zq-5" value="&lt;font style=&quot;font-size: 13px&quot;&gt;Analisis Kebutuhan Sensor dan Perancangan Hardware&lt;/font&gt;" style="rounded=1;whiteSpace=wrap;html=1;absoluteArcSize=1;arcSize=14;strokeWidth=1;align=center;" vertex="1" parent="WIyWlLk6GJQsqaUBKTNV-1">
          <mxGeometry x="250" y="340" width="150" height="70" as="geometry" />
        </mxCell>
        <mxCell id="l0DTdeRmtsoBARkhN8Zq-6" value="&lt;font style=&quot;font-size: 13px&quot;&gt;Design Arsitektur dan Prototyping&lt;/font&gt;" style="rounded=1;whiteSpace=wrap;html=1;absoluteArcSize=1;arcSize=14;strokeWidth=1;strokeColor=#FF0000;" vertex="1" parent="WIyWlLk6GJQsqaUBKTNV-1">
          <mxGeometry x="250" y="440" width="150" height="70" as="geometry" />
        </mxCell>
        <mxCell id="l0DTdeRmtsoBARkhN8Zq-7" value="&lt;font style=&quot;font-size: 13px&quot;&gt;Prototyping IoT&lt;/font&gt;" style="rounded=1;whiteSpace=wrap;html=1;absoluteArcSize=1;arcSize=14;strokeWidth=1;" vertex="1" parent="WIyWlLk6GJQsqaUBKTNV-1">
          <mxGeometry x="250" y="540" width="150" height="70" as="geometry" />
        </mxCell>
        <mxCell id="l0DTdeRmtsoBARkhN8Zq-8" value="" style="endArrow=none;html=1;entryX=1;entryY=0.5;entryDx=0;entryDy=0;" edge="1" parent="WIyWlLk6GJQsqaUBKTNV-1" target="l0DTdeRmtsoBARkhN8Zq-7">
          <mxGeometry width="50" height="50" relative="1" as="geometry">
            <mxPoint x="440" y="575" as="sourcePoint" />
            <mxPoint x="440" y="360" as="targetPoint" />
          </mxGeometry>
        </mxCell>
        <mxCell id="l0DTdeRmtsoBARkhN8Zq-9" value="" style="endArrow=classic;html=1;exitX=0.5;exitY=1;exitDx=0;exitDy=0;exitPerimeter=0;entryX=0.5;entryY=0;entryDx=0;entryDy=0;" edge="1" parent="WIyWlLk6GJQsqaUBKTNV-1" source="l0DTdeRmtsoBARkhN8Zq-2" target="l0DTdeRmtsoBARkhN8Zq-3">
          <mxGeometry width="50" height="50" relative="1" as="geometry">
            <mxPoint x="390" y="300" as="sourcePoint" />
            <mxPoint x="440" y="250" as="targetPoint" />
          </mxGeometry>
        </mxCell>
        <mxCell id="l0DTdeRmtsoBARkhN8Zq-11" value="" style="endArrow=classic;html=1;exitX=0.5;exitY=1;exitDx=0;exitDy=0;entryX=0.5;entryY=0;entryDx=0;entryDy=0;" edge="1" parent="WIyWlLk6GJQsqaUBKTNV-1" source="l0DTdeRmtsoBARkhN8Zq-3" target="l0DTdeRmtsoBARkhN8Zq-4">
          <mxGeometry width="50" height="50" relative="1" as="geometry">
            <mxPoint x="390" y="300" as="sourcePoint" />
            <mxPoint x="440" y="250" as="targetPoint" />
          </mxGeometry>
        </mxCell>
        <mxCell id="l0DTdeRmtsoBARkhN8Zq-12" value="" style="endArrow=classic;html=1;exitX=0.5;exitY=1;exitDx=0;exitDy=0;entryX=0.5;entryY=0;entryDx=0;entryDy=0;" edge="1" parent="WIyWlLk6GJQsqaUBKTNV-1" source="l0DTdeRmtsoBARkhN8Zq-4" target="l0DTdeRmtsoBARkhN8Zq-5">
          <mxGeometry width="50" height="50" relative="1" as="geometry">
            <mxPoint x="390" y="300" as="sourcePoint" />
            <mxPoint x="440" y="250" as="targetPoint" />
          </mxGeometry>
        </mxCell>
        <mxCell id="l0DTdeRmtsoBARkhN8Zq-13" value="" style="endArrow=classic;html=1;exitX=0.5;exitY=1;exitDx=0;exitDy=0;entryX=0.5;entryY=0;entryDx=0;entryDy=0;" edge="1" parent="WIyWlLk6GJQsqaUBKTNV-1" source="l0DTdeRmtsoBARkhN8Zq-5" target="l0DTdeRmtsoBARkhN8Zq-6">
          <mxGeometry width="50" height="50" relative="1" as="geometry">
            <mxPoint x="390" y="400" as="sourcePoint" />
            <mxPoint x="440" y="350" as="targetPoint" />
          </mxGeometry>
        </mxCell>
        <mxCell id="l0DTdeRmtsoBARkhN8Zq-14" value="" style="endArrow=classic;html=1;exitX=0.5;exitY=1;exitDx=0;exitDy=0;entryX=0.5;entryY=0;entryDx=0;entryDy=0;" edge="1" parent="WIyWlLk6GJQsqaUBKTNV-1" source="l0DTdeRmtsoBARkhN8Zq-6" target="l0DTdeRmtsoBARkhN8Zq-7">
          <mxGeometry width="50" height="50" relative="1" as="geometry">
            <mxPoint x="390" y="400" as="sourcePoint" />
            <mxPoint x="440" y="350" as="targetPoint" />
          </mxGeometry>
        </mxCell>
        <mxCell id="l0DTdeRmtsoBARkhN8Zq-16" value="" style="rounded=0;whiteSpace=wrap;html=1;strokeWidth=1;strokeColor=#FF8000;" vertex="1" parent="WIyWlLk6GJQsqaUBKTNV-1">
          <mxGeometry x="230" y="40" width="240" height="590" as="geometry" />
        </mxCell>
        <mxCell id="l0DTdeRmtsoBARkhN8Zq-17" value="&lt;font style=&quot;font-size: 14px&quot;&gt;Mulai&lt;/font&gt;" style="strokeWidth=1;html=1;shape=mxgraph.flowchart.start_1;whiteSpace=wrap;" vertex="1" parent="WIyWlLk6GJQsqaUBKTNV-1">
          <mxGeometry x="260" y="60" width="150" height="70" as="geometry" />
        </mxCell>
        <mxCell id="l0DTdeRmtsoBARkhN8Zq-18" value="&lt;font style=&quot;font-size: 13px&quot;&gt;Analisis Metode Deskriptif&lt;/font&gt;" style="rounded=1;whiteSpace=wrap;html=1;absoluteArcSize=1;arcSize=14;strokeWidth=1;" vertex="1" parent="WIyWlLk6GJQsqaUBKTNV-1">
          <mxGeometry x="260" y="160" width="150" height="70" as="geometry" />
        </mxCell>
        <mxCell id="l0DTdeRmtsoBARkhN8Zq-19" value="&lt;font style=&quot;font-size: 13px&quot;&gt;Studi Literatur&lt;/font&gt;" style="shape=parallelogram;html=1;strokeWidth=1;perimeter=parallelogramPerimeter;whiteSpace=wrap;rounded=1;arcSize=12;size=0.23;" vertex="1" parent="WIyWlLk6GJQsqaUBKTNV-1">
          <mxGeometry x="260" y="260" width="150" height="60" as="geometry" />
        </mxCell>
        <mxCell id="l0DTdeRmtsoBARkhN8Zq-20" value="&lt;font style=&quot;font-size: 13px&quot;&gt;Analisis Kebutuhan Sensor dan Perancangan Hardware&lt;/font&gt;" style="rounded=1;whiteSpace=wrap;html=1;absoluteArcSize=1;arcSize=14;strokeWidth=1;align=center;" vertex="1" parent="WIyWlLk6GJQsqaUBKTNV-1">
          <mxGeometry x="260" y="350" width="150" height="70" as="geometry" />
        </mxCell>
        <mxCell id="l0DTdeRmtsoBARkhN8Zq-21" value="&lt;font style=&quot;font-size: 13px&quot;&gt;Design Arsitektur dan Prototyping&lt;/font&gt;" style="rounded=1;whiteSpace=wrap;html=1;absoluteArcSize=1;arcSize=14;strokeWidth=1;strokeColor=#FF0000;" vertex="1" parent="WIyWlLk6GJQsqaUBKTNV-1">
          <mxGeometry x="260" y="450" width="150" height="70" as="geometry" />
        </mxCell>
        <mxCell id="l0DTdeRmtsoBARkhN8Zq-22" value="&lt;font style=&quot;font-size: 13px&quot;&gt;Prototyping IoT&lt;/font&gt;" style="rounded=1;whiteSpace=wrap;html=1;absoluteArcSize=1;arcSize=14;strokeWidth=1;" vertex="1" parent="WIyWlLk6GJQsqaUBKTNV-1">
          <mxGeometry x="260" y="550" width="150" height="70" as="geometry" />
        </mxCell>
        <mxCell id="l0DTdeRmtsoBARkhN8Zq-23" value="" style="endArrow=none;html=1;entryX=1;entryY=0.5;entryDx=0;entryDy=0;" edge="1" parent="WIyWlLk6GJQsqaUBKTNV-1" target="l0DTdeRmtsoBARkhN8Zq-22">
          <mxGeometry width="50" height="50" relative="1" as="geometry">
            <mxPoint x="450" y="585" as="sourcePoint" />
            <mxPoint x="450" y="370" as="targetPoint" />
          </mxGeometry>
        </mxCell>
        <mxCell id="l0DTdeRmtsoBARkhN8Zq-24" value="" style="endArrow=classic;html=1;exitX=0.5;exitY=1;exitDx=0;exitDy=0;exitPerimeter=0;entryX=0.5;entryY=0;entryDx=0;entryDy=0;" edge="1" parent="WIyWlLk6GJQsqaUBKTNV-1" source="l0DTdeRmtsoBARkhN8Zq-17" target="l0DTdeRmtsoBARkhN8Zq-18">
          <mxGeometry width="50" height="50" relative="1" as="geometry">
            <mxPoint x="400" y="310" as="sourcePoint" />
            <mxPoint x="450" y="260" as="targetPoint" />
          </mxGeometry>
        </mxCell>
        <mxCell id="l0DTdeRmtsoBARkhN8Zq-25" value="" style="endArrow=classic;html=1;exitX=0.5;exitY=1;exitDx=0;exitDy=0;entryX=0.5;entryY=0;entryDx=0;entryDy=0;" edge="1" parent="WIyWlLk6GJQsqaUBKTNV-1" source="l0DTdeRmtsoBARkhN8Zq-18" target="l0DTdeRmtsoBARkhN8Zq-19">
          <mxGeometry width="50" height="50" relative="1" as="geometry">
            <mxPoint x="400" y="310" as="sourcePoint" />
            <mxPoint x="450" y="260" as="targetPoint" />
          </mxGeometry>
        </mxCell>
        <mxCell id="l0DTdeRmtsoBARkhN8Zq-26" value="" style="endArrow=classic;html=1;exitX=0.5;exitY=1;exitDx=0;exitDy=0;entryX=0.5;entryY=0;entryDx=0;entryDy=0;" edge="1" parent="WIyWlLk6GJQsqaUBKTNV-1" source="l0DTdeRmtsoBARkhN8Zq-19" target="l0DTdeRmtsoBARkhN8Zq-20">
          <mxGeometry width="50" height="50" relative="1" as="geometry">
            <mxPoint x="400" y="310" as="sourcePoint" />
            <mxPoint x="450" y="260" as="targetPoint" />
          </mxGeometry>
        </mxCell>
        <mxCell id="l0DTdeRmtsoBARkhN8Zq-27" value="" style="endArrow=classic;html=1;exitX=0.5;exitY=1;exitDx=0;exitDy=0;entryX=0.5;entryY=0;entryDx=0;entryDy=0;" edge="1" parent="WIyWlLk6GJQsqaUBKTNV-1" source="l0DTdeRmtsoBARkhN8Zq-20" target="l0DTdeRmtsoBARkhN8Zq-21">
          <mxGeometry width="50" height="50" relative="1" as="geometry">
            <mxPoint x="400" y="410" as="sourcePoint" />
            <mxPoint x="450" y="360" as="targetPoint" />
          </mxGeometry>
        </mxCell>
        <mxCell id="l0DTdeRmtsoBARkhN8Zq-28" value="" style="endArrow=classic;html=1;exitX=0.5;exitY=1;exitDx=0;exitDy=0;entryX=0.5;entryY=0;entryDx=0;entryDy=0;" edge="1" parent="WIyWlLk6GJQsqaUBKTNV-1" source="l0DTdeRmtsoBARkhN8Zq-21" target="l0DTdeRmtsoBARkhN8Zq-22">
          <mxGeometry width="50" height="50" relative="1" as="geometry">
            <mxPoint x="400" y="410" as="sourcePoint" />
            <mxPoint x="450" y="360" as="targetPoint" />
          </mxGeometry>
        </mxCell>
      </root>
    </mxGraphModel>
  </diagram>
</mxfile>
